<?xml version="1.0" encoding="UTF-8"?>
<!DOCTYPE svg PUBLIC "-//W3C//DTD SVG 1.1//EN" "http://www.w3.org/Graphics/SVG/1.1/DTD/svg11.dtd">
<!-- Creator: CorelDRAW 2021 (64-Bit) -->
<svg xmlns="http://www.w3.org/2000/svg" xml:space="preserve" width="4.48087in" height="4.77434in" version="1.1" style="shape-rendering:geometricPrecision; text-rendering:geometricPrecision; image-rendering:optimizeQuality; fill-rule:evenodd; clip-rule:evenodd"
viewBox="0 0 362.4 386.14"
 xmlns:xlink="http://www.w3.org/1999/xlink"
 xmlns:xodm="http://www.corel.com/coreldraw/odm/2003">
 <defs>
  <style type="text/css">
   <![CDATA[
    .fil1 {fill:#00A6ED}
    .fil0 {fill:#8CDDFF;fill-rule:nonzero}
   ]]>
  </style>
 </defs>
 <g id="Layer_x0020_1">
  <metadata id="CorelCorpID_0Corel-Layer"/>
  <g id="_2041140995776">
   <g>
    <path class="fil0" d="M6.53 170.4c0,-10.27 8.33,-18.6 18.6,-18.6 10.27,0 18.6,8.33 18.6,18.6l0 130.29c0,10.27 -8.33,18.6 -18.6,18.6 -10.27,0 -18.6,-8.33 -18.6,-18.6l0 -130.29zm129.94 -135.84c-8.83,-5.22 -11.76,-16.6 -6.54,-25.43 5.22,-8.83 16.6,-11.76 25.43,-6.54l112.12 66.36c8.83,5.22 11.76,16.6 6.54,25.43 -5.22,8.83 -16.6,11.76 -25.43,6.54l-112.12 -66.36zm90.26 313.93c-8.83,5.22 -20.22,2.29 -25.43,-6.54 -5.22,-8.83 -2.29,-20.22 6.54,-25.43l112.12 -66.36c8.83,-5.22 20.22,-2.29 25.43,6.54 5.22,8.83 2.29,20.22 -6.54,25.43l-112.12 66.36z"/>
    <path class="fil1" d="M116.99 139.03l-88.97 -52.51c-8.83,-5.22 -20.22,-2.29 -25.43,6.54 -5.22,8.83 -2.29,20.22 6.54,25.43l92.16 54.39c-4.14,3.89 -7.92,8.14 -11.3,12.71 -13.34,18.03 -14.91,26.7 -14.91,47.73l0 34.14 0 66.65c0,10.27 8.33,18.6 18.6,18.6 10.27,0 18.6,-8.33 18.6,-18.6l0 -14.74 0 -47.92 0 -30.71c0,-24.62 -3.57,-34.45 19.38,-49.93 6.81,-4.59 14.6,-7.85 22.98,-9.42 0.02,0 0.03,0 0.05,0 0.83,-0.16 1.68,-0.29 2.52,-0.41 3.27,-1.08 5.63,-4.16 5.63,-7.79 0,-0.57 -0.06,-1.13 -0.17,-1.67 -0.29,-0.92 -0.65,-1.81 -1.07,-2.67 -1.54,-3.12 -3.98,-5.85 -7.2,-7.75l-16.33 -9.64 -21.08 -12.44zm206.07 73.68l-3.34 -5.05 -44.08 26.5 -29.26 17.59c-18.03,10.84 -26.27,13.96 -48.59,11.81 -5.66,-0.55 -11.25,-1.6 -16.71,-3.14l0.86 107.01c0.08,10.25 -8.18,18.63 -18.43,18.71 -10.25,0.08 -18.63,-8.17 -18.71,-18.43l-0.83 -103.31 -0.2 -24.48 -0.15 -18.96c-0.03,-3.74 1.05,-7.23 2.93,-10.16 0.52,-0.81 1.1,-1.58 1.74,-2.3 0.4,-0.37 0.85,-0.71 1.34,-1 3.11,-1.87 6.97,-1.43 9.57,0.81 0.54,0.66 1.09,1.32 1.65,1.95 0.01,0.01 0.02,0.03 0.03,0.04 5.66,6.38 12.46,11.37 19.91,14.85 25.09,11.7 31.68,3.57 52.78,-9.11l26.32 -15.82 39.27 -23.6 -2.85 -4.3c-1.1,-1.68 -1.71,-3.7 -1.62,-5.86 0.23,-5.43 4.83,-9.64 10.26,-9.41l48.05 0.59 -0 0.02c1.5,0.06 3,0.47 4.4,1.26 4.73,2.66 6.4,8.66 3.74,13.38l-20.95 39.18c-0.74,1.58 -1.91,2.98 -3.47,4.02 -4.54,3 -10.65,1.76 -13.65,-2.78zm-216.64 -168.83l-3.56 6.04 50.02 27.37 29.95 16.39c18.46,10.1 25.31,15.63 34.72,35.99 2.38,5.16 4.3,10.52 5.72,16.01l91.96 -54.73c8.82,-5.24 20.21,-2.34 25.45,6.47 5.24,8.81 2.34,20.21 -6.47,25.45l-88.78 52.84 -21.04 12.52 -16.29 9.7c-3.22,1.91 -6.78,2.74 -10.25,2.59 -0.96,-0.04 -1.92,-0.16 -2.86,-0.34 -0.53,-0.16 -1.04,-0.38 -1.54,-0.65 -3.18,-1.74 -4.75,-5.29 -4.13,-8.67 0.3,-0.8 0.59,-1.6 0.85,-2.41 0.01,-0.01 0.02,-0.03 0.02,-0.04 2.65,-8.1 3.53,-16.5 2.77,-24.68 -2.56,-27.57 -12.9,-29.16 -34.49,-40.97l-26.94 -14.74 -42.04 -23.01 -5.54 -3.03 -2.14 3.63c-1.03,1.73 -2.58,3.16 -4.56,4.02 -4.99,2.17 -10.79,-0.12 -12.95,-5.11l-20.41 -41.41 0.02 -0.01c-0.6,-1.37 -0.89,-2.91 -0.8,-4.5 0.32,-5.41 4.98,-9.54 10.4,-9.22l44.31 -0.36c1.75,-0.02 3.52,0.42 5.13,1.37 4.69,2.76 6.24,8.81 3.48,13.49z"/>
   </g>
  </g>
 </g>
</svg>
